# xmcd
#
# Track frame offsets:
#	150
#	16465
#	32769
#	47917
#	64757
#	80864
#	96317
#	116004
#	132989
#	153667
#	173634
#	188972
#	203614
#
# Disc length: 2905 seconds
# Revision: 0
# Processed by: cddbd v1.5.2PL0 Copyright (c) Steve Scherf et al.
# Submitted via: dBpowerAMP V12.0
#
DISCID=b60b570d
DTITLE=Chad Harvey - Get Lit
DYEAR=2008
DGENRE=Rock
TTITLE0=Backstage Pass
TTITLE1=Sunny Day
TTITLE2=Get Lit
TTITLE3=More Than You Know
TTITLE4=Pour Me Another
TTITLE5=Just To See What She Feels Like
TTITLE6=Dream On
TTITLE7=Huggin' N' A Lovin'
TTITLE8=Driftin'
TTITLE9=Run
TTITLE10=Hey Hey Hey
TTITLE11=What Would You Say
TTITLE12=Downtown Tonight
EXTD=
EXTT0=
EXTT1=
EXTT2=
EXTT3=
EXTT4=
EXTT5=
EXTT6=
EXTT7=
EXTT8=
EXTT9=
EXTT10=
EXTT11=
EXTT12=
PLAYORDER=
